<?xml version="1.0" encoding="utf-8"?>
<!-- Generator: Adobe Illustrator 16.0.0, SVG Export Plug-In . SVG Version: 6.00 Build 0)  -->
<!DOCTYPE svg PUBLIC "-//W3C//DTD SVG 1.1//EN" "http://www.w3.org/Graphics/SVG/1.1/DTD/svg11.dtd">
<svg version="1.1" id="Layer_1" xmlns="http://www.w3.org/2000/svg" xmlns:xlink="http://www.w3.org/1999/xlink" x="0px" y="0px"
	 width="33px" height="33px" viewBox="0 0 33 33" enable-background="new 0 0 33 33" xml:space="preserve">
<path fill="#C99065" d="M28.143,4.857c-6.658,3.495-9.984,8.339-9.984,14.534c0,2.064,0.625,3.819,1.877,5.265
	s2.732,2.168,4.443,2.168c1.525,0,2.793-0.556,3.801-1.668c1.008-1.111,1.511-2.477,1.511-4.098c0-1.525-0.52-2.866-1.557-4.026
	c-1.038-1.159-2.352-1.835-3.938-2.025c0-2.573,1.861-4.812,5.587-6.719L28.143,4.857z M11.334,4.857
	c-6.626,3.495-9.939,8.339-9.939,14.534c0,2.064,0.618,3.819,1.854,5.265c1.237,1.445,2.709,2.168,4.419,2.168
	c1.527,0,2.801-0.556,3.825-1.668c1.022-1.111,1.534-2.477,1.534-4.098c0-1.525-0.52-2.866-1.558-4.026
	c-1.039-1.159-2.367-1.835-3.985-2.025c0-2.573,1.877-4.812,5.633-6.719L11.334,4.857z"/>
</svg>
