<?xml version="1.0" encoding="utf-8"?>
<!-- Generator: Adobe Illustrator 16.0.0, SVG Export Plug-In . SVG Version: 6.00 Build 0)  -->
<!DOCTYPE svg PUBLIC "-//W3C//DTD SVG 1.1//EN" "http://www.w3.org/Graphics/SVG/1.1/DTD/svg11.dtd">
<svg version="1.1" id="Layer_1" xmlns="http://www.w3.org/2000/svg" xmlns:xlink="http://www.w3.org/1999/xlink" x="0px" y="0px"
	 width="33px" height="33px"  enable-background="new 0 0 33 33" xml:space="preserve">

<g>
	<g>
		<path fill="#fff" d="M31.468,31.294L21.003,20.726c3.918-4.715,3.688-11.773-0.699-16.206C18.057,2.25,15.068,1,11.891,1
			C8.712,1,5.725,2.25,3.478,4.52c-4.637,4.684-4.637,12.304,0,16.987c2.247,2.27,5.234,3.52,8.413,3.52
			c2.861,0,5.564-1.021,7.716-2.88l10.456,10.56C30.256,32.902,30.511,33,30.765,33s0.508-0.098,0.701-0.292
			C31.854,32.318,31.855,31.685,31.468,31.294z M18.897,20.095c-1.871,1.891-4.36,2.932-7.007,2.932
			c-2.647,0-5.136-1.041-7.008-2.932c-3.866-3.905-3.866-10.258,0-14.163C6.755,4.041,9.243,3,11.891,3
			c2.646,0,5.136,1.041,7.007,2.932C22.764,9.837,22.764,16.189,18.897,20.095z M16.879,11.99h-3.725V8.237c0-0.553-0.444-1-0.992-1
			c-0.549,0-0.993,0.447-0.993,1v3.753H7.444c-0.549,0-0.993,0.447-0.993,1s0.444,1,0.993,1h3.725v3.753c0,0.553,0.444,1,0.993,1
			c0.548,0,0.992-0.447,0.992-1V13.99h3.725c0.549,0,0.993-0.447,0.993-1S17.428,11.99,16.879,11.99z"/>
	</g>
</g>
</svg>
